<?xml version="1.0" encoding="utf-8"?>
<!-- Generated by IcoMoon.io -->
<!DOCTYPE svg PUBLIC "-//W3C//DTD SVG 1.1//EN" "http://www.w3.org/Graphics/SVG/1.1/DTD/svg11.dtd">
<svg version="1.1" xmlns="http://www.w3.org/2000/svg" xmlns:xlink="http://www.w3.org/1999/xlink" width="1024" height="1024" viewBox="0 0 1024 1024" style="fill: white;">
<g id="icomoon-ignore">
</g>
<path d="M1024 508c0 0 4-28-40-32-38-6-52-30-58-48-2-18 2-50 38-70 38-20 26-46 26-46v0c0 0-10-26-52-14-38 10-62-10-74-24-8-16-14-44 8-76 28-34 8-54 8-54v0c0 0-20-20-54 8-32 24-60 16-78 6-14-12-30-36-22-72 12-42-14-54-14-54v0c0 0-26-10-46 28-20 34-52 38-70 36-18-6-42-18-48-56-4-44-32-40-32-40v0c0 0-28-4-34 40-4 34-24 48-40 56-6 0-10 0-14 2-20 0-44-8-62-38-22-38-46-26-46-26h-2c0 0-24 10-12 52 8 36-8 58-22 72-2 0-4 2-4 2-18 8-44 14-74-8-34-28-54-8-54-8v0c0 0-20 20 8 54 20 28 16 56 8 72-2 4-4 6-4 8-14 14-36 28-70 20-42-12-54 14-54 14v0c0 0-10 26 28 46 30 18 36 44 36 62 0 4-2 8-2 12-8 16-22 38-58 44-44 4-44 32-44 32v0c0 0 0 28 44 34 36 4 52 28 58 44 0 4 2 8 2 10 0 20-6 44-36 62-38 22-28 46-28 46v2c0 0 12 24 54 12 34-8 56 6 70 20 2 2 4 6 6 8 6 18 10 44-10 72-28 34-8 54-8 54v0c0 0 20 20 54-8 30-22 56-16 74-8 2 2 4 2 4 4 14 12 30 36 22 70-12 42 12 54 12 54h2c0 0 24 10 46-28 20-34 50-38 68-36 18 6 44 22 48 60 6 44 34 44 34 44v0c0 0 28 0 32-44 6-40 34-54 52-60 18-2 46 4 66 36 20 38 46 28 46 28v0c0 0 26-12 14-54-10-38 10-62 24-74 16-8 44-14 76 8 34 28 54 8 54 8v0c0 0 20-20-8-54-24-32-16-60-6-78 12-14 36-30 72-22 42 12 54-12 54-12v-2c0 0 10-24-28-46-34-20-38-52-36-70 6-16 18-42 56-46 44-6 40-34 40-34v0zM514 826c-174 0-316-142-316-318 0-174 142-316 316-316 176 0 318 142 318 316 0 176-142 318-318 318zM514 262c-136 0-246 110-246 246s110 246 246 246c136 0 246-110 246-246s-110-246-246-246zM514 686c-98 0-178-80-178-178s80-178 178-178c98 0 178 80 178 178s-80 178-178 178z"></path>
</svg>
