<?xml version="1.0" encoding="utf-8"?>
<!-- Generated by IcoMoon.io -->
<!DOCTYPE svg PUBLIC "-//W3C//DTD SVG 1.1//EN" "http://www.w3.org/Graphics/SVG/1.1/DTD/svg11.dtd">
<svg version="1.1" xmlns="http://www.w3.org/2000/svg" xmlns:xlink="http://www.w3.org/1999/xlink" width="1024" height="1024" viewBox="0 0 1024 1024"><g id="icomoon-ignore">
</g>
<path d="M932 422c0 0 0-24-36-28-30-4-42-24-48-38 0-16 2-40 30-58 32-16 22-38 22-38v0c0 0-8-22-42-12-32 8-52-6-60-18-8-14-14-38 6-62 22-28 6-44 6-44v-2c0 0-16-16-44 6-26 20-50 14-64 6-12-10-26-28-18-60 10-34-12-42-12-42v0c0 0-20-10-38 22-16 28-42 30-56 30-14-6-34-18-40-48-4-36-26-36-26-36v0c0 0-24 0-28 36-4 30-22 42-38 48 0 0 0 0-2 0-14 0-38-2-54-30-18-32-40-22-40-22v0c0 0-20 8-10 42 8 30-6 50-18 60 0 0-2 2-4 2-14 6-36 10-60-8-28-22-44-6-44-6v2c0 0-16 16 6 44 18 22 14 44 8 58-2 2-4 4-4 8-12 10-30 22-58 14-34-10-42 12-42 12v0c0 0-10 22 22 38 24 14 30 36 30 50-2 4-2 8-2 10-6 14-20 32-48 36-36 4-36 28-36 28v0c0 0 0 22 36 26 30 4 42 24 48 38 0 2 0 6 2 8 0 16-6 36-30 50-32 18-22 38-22 38v0c0 0 8 22 42 12 28-8 46 4 58 16 2 2 2 4 4 6 6 14 10 36-8 60-22 28-6 44-6 44v0c0 0 16 16 44-6 24-18 46-14 60-8 2 2 4 2 6 4 10 10 22 28 16 58-10 34 10 42 10 42v0c0 0 22 10 40-22 16-26 40-30 54-30 16 6 36 18 40 50 4 36 28 36 28 36v0c0 0 22 0 26-36 6-34 28-46 42-50 16 0 38 4 54 30 18 32 38 22 38 22v0c0 0 22-8 12-42-8-32 8-52 18-60 14-8 38-14 64 6 28 22 44 6 44 6v0c0 0 16-16-6-44-20-26-14-50-6-64 10-12 28-26 60-18 34 10 42-12 42-12v0c0 0 10-20-22-38-28-16-30-42-30-56 6-16 18-36 48-40 36-4 36-26 36-26v0zM510 704c-156 0-282-126-282-282 0-158 126-284 282-284s284 126 284 284c0 156-128 282-284 282zM510 156c-146 0-264 118-264 266 0 146 118 264 264 264s266-118 266-264c0-148-120-266-266-266zM510 666c-134 0-244-110-244-244 0-136 110-246 244-246 136 0 244 110 244 246 0 134-108 244-244 244zM510 200c-122 0-220 100-220 222s98 220 220 220c122 0 222-98 222-220s-100-222-222-222zM510 630c-114 0-208-94-208-208 0-116 94-210 208-210 116 0 208 94 208 210 0 114-92 208-208 208zM538 424c0 0 0 0 0 0 10-4 22-16 22-32 0-14-4-22-12-28-10-8-22-12-42-12-16 0-30 2-40 4 0 0 0 130 0 130h30v-52c0 0 8 0 8 0 12 0 18 6 22 22s6 26 8 30c0 0 32 0 32 0-4-4-8-22-12-36-2-14-8-22-16-26zM508 412c0 0-12 0-12 0s0-36 0-36c2 0 6 0 12 0 14 0 22 6 22 18s-8 18-22 18zM636 1004c-4 0-10 4-10 10s6 10 10 10c6 0 12-4 12-10s-6-10-12-10zM566 922c-14 0-28 6-38 14-6 8-20 24-24 30 0 0 0 0 0 0-4 6-18 22-24 28-4 6-12 10-20 10-18 0-32-14-32-32 0-16 14-30 32-30 8 0 16 4 20 10 0 0 16-16 16-16-10-10-24-14-36-14-30 0-52 22-52 50 0 0 0 0 0 0 0 28 22 52 52 52 12 0 26-6 36-16 6-6 20-24 24-28 0 0 0 0 0 0 4-6 18-24 24-28 4-6 14-10 22-10 16 0 30 14 30 30 0 18-14 32-30 32-10 0-16-2-24-12 0 0-2 0-2 0 0-2-4-4-6-4-6 0-12 4-12 10 0 4 2 6 4 8 0 0 0 0 0 0s0 0 0 0 0 0 0 0c10 12 24 18 40 18 28 0 50-22 50-52 0 0 0 0 0 0s0 0 0 0c0-28-22-50-50-50z"></path>
</svg>
