<?xml version="1.0" encoding="utf-8"?>
<!-- Generated by IcoMoon.io -->
<!DOCTYPE svg PUBLIC "-//W3C//DTD SVG 1.1//EN" "http://www.w3.org/Graphics/SVG/1.1/DTD/svg11.dtd">
<svg version="1.1" xmlns="http://www.w3.org/2000/svg" xmlns:xlink="http://www.w3.org/1999/xlink" width="1024" height="1024" viewBox="0 0 1024 1024">
<g id="icomoon-ignore">
</g>
<path d="M978 310c0 0-932 0-932 0-26 0-46 20-46 46 0 0 0 312 0 312 0 26 20 46 46 46 0 0 932 0 932 0 26 0 46-20 46-46 0 0 0-312 0-312 0-26-20-46-46-46zM1008 656c0 24-18 42-42 42 0 0-908 0-908 0-24 0-42-18-42-42 0 0 0-288 0-288 0-24 18-42 42-42 0 0 908 0 908 0 24 0 42 18 42 42 0 0 0 288 0 288zM918 410c0 0-160 0-160 0-12 0-22 10-22 22 0 0 0 160 0 160 0 12 10 20 22 20 0 0 160 0 160 0 12 0 20-8 20-20 0 0 0-160 0-160 0-12-8-22-20-22zM838 472c22 0 40 18 40 40s-18 40-40 40c-22 0-40-18-40-40s18-40 40-40zM918 588c0 2-2 4-4 4 0 0-152 0-152 0-2 0-4-2-4-4 0 0 0-86 0-86s20 0 20 0c0 2 0 6 0 10 0 34 26 60 60 60s60-26 60-60c0-4 0-8 0-10 0 0 20 0 20 0s0 86 0 86zM918 456c0 4-2 6-4 6 0 0-20 0-20 0-4 0-6-2-6-6 0 0 0-20 0-20 0-2 2-4 6-4 0 0 20 0 20 0 2 0 4 2 4 4 0 0 0 20 0 20zM640 554c-2-2-4-4-8-4-2 0-4-2-8-2-6 0-10 2-12 4-4 2-8 4-10 8-2-4-4-8-6-8-4-2-8-4-12-4s-8 2-12 2c-2 2-6 4-8 8 0 0 0-8 0-8h-10v66h10c0 0 0-48 0-48 2-4 4-6 6-8s6-2 10-2c2 0 4 0 6 0 2 2 2 2 4 4 2 0 2 2 2 4 2 2 2 4 2 6 0 0 0 44 0 44h12c0 0 0-44 0-44 0-2 0-4 0-6 2-2 2-2 4-4 0-2 2-2 4-2 2-2 4-2 6-2s4 0 6 0c2 2 4 2 4 2 2 2 2 4 4 6 0 2 0 4 0 6 0 0 0 44 0 44h12c0 0 0-44 0-44 0-4 0-8-2-10 0-4-2-6-4-8zM536 602c0 0 0-32 0-32 0-4 0-6-2-10 0-2-2-4-4-6s-6-4-8-4c-4 0-6-2-10-2s-8 2-12 2c-2 2-6 2-8 4s-4 4-4 6-2 6-2 8c0 0 10 0 10 0 0-2 2-2 2-4s2-2 2-4c2 0 4 0 6-2 0 0 2 0 4 0 6 0 8 0 12 4 2 2 2 4 2 8 0 0 0 6 0 6s-10 0-10 0c-4 0-8 0-12 2-4 0-8 2-10 4-2 0-4 4-6 6s-2 6-2 10c0 2 0 4 2 6 0 4 2 6 4 8 2 0 4 2 8 4 2 0 6 0 8 0s4 0 6 0c2 0 4 0 6-2 0 0 2-2 4-2 0-2 2-2 4-4 0 2 0 4 0 4 0 2 0 2 0 4 0 0 12 0 12 0s0-2 0-2 0-4-2-6c0-2 0-4 0-6zM524 598c0 0 0 2-2 2 0 2-2 2-4 4 0 0-2 2-4 2s-4 0-6 0c-2 0-4 0-6 0 0 0-2-2-4-2 0-2-2-2-2-4s0-2 0-4c0-4 2-8 4-10 4-2 10-2 16-2 0 0 8 0 8 0s0 14 0 14zM474 548c-4 0-8 2-10 2-2 2-4 4-6 8 0 0 0-8 0-8h-12v66h12c0 0 0-48 0-48 0-2 2-4 6-6 2-2 4-2 8-2 2 0 2 0 4 0 0 0 2 0 2 0s0-10 0-10c0 0 0 0-2-2 0 0-2 0-2 0zM452 476c0 0 0-32 0-32 0-4-2-6-2-8 0-4-2-6-4-6 0-2-2-2-4-4-2 0-4 0-6 0-4 0-6 0-8 2-4 0-6 2-8 4 0 0 0-6 0-6h-8v50h8c0 0 0-36 0-36 2-2 4-4 6-6 2 0 4-2 6-2s4 0 6 2c0 0 2 0 2 2 2 0 2 0 2 2s0 4 0 6c0 0 0 32 0 32h10zM418 558c-2-4-4-6-8-8-2 0-6-2-10-2s-8 2-10 2c-4 2-6 4-8 8-4 2-4 6-6 10s-2 10-2 14c0 0 0 2 0 2 0 4 0 8 2 12s4 8 6 12c2 2 4 4 8 6 2 2 6 2 10 2s8 0 10-2c4 0 6-2 8-6 0 0 0 6 0 6 0 4 0 6 0 8-2 2-2 4-4 6s-4 2-6 4c-2 0-4 0-6 0s-4 0-6 0c0 0-2-2-4-2s-2-2-4-2-4-4-4-4c0 0-6 6-6 6 2 2 2 4 4 6 2 0 6 2 8 2 2 2 4 2 6 2 2 2 4 2 6 2 4 0 8-2 12-2 2-2 6-4 8-6s4-6 6-8c0-4 2-8 2-12 0 0 0-64 0-64h-10c0 0-2 8-2 8zM418 598c0 0-2 2-2 4-2 0-2 2-4 2 0 2-2 2-4 2s-4 2-6 2c-2 0-4-2-8-2-2-2-2-4-4-6s-2-4-4-8c0-2 0-6 0-8 0 0 0-2 0-2 0-4 0-6 0-10 2-2 2-4 4-6s2-4 6-6c2-2 4-2 6-2s4 0 6 0c2 2 4 2 4 2 2 2 2 2 4 4 0 0 2 2 2 4 0 0 0 30 0 30zM388 474c2 0 6-2 8-4s2-6 4-8c0-4 2-6 2-10 0 0 0-2 0-2 0-4-2-6-2-10-2-2-2-6-4-8s-6-4-8-4c-2-2-6-2-10-2-2 0-6 0-8 2-4 0-6 2-8 4s-2 6-4 8c-2 4-2 6-2 10 0 0 0 2 0 2 0 4 0 6 2 10 2 2 2 6 4 8s4 4 8 4c2 2 6 2 8 2 4 0 8 0 10-2zM372 468c-2 0-2-2-4-4 0-2-2-4-2-6s-2-4-2-6c0 0 0-2 0-2 0-2 2-4 2-6s2-4 2-6c2-2 2-4 4-4 2-2 4-2 6-2 4 0 6 0 6 2 2 0 4 2 6 4 0 2 2 4 2 6s0 4 0 6c0 0 0 2 0 2 0 2 0 4 0 6s-2 4-2 6c-2 2-4 4-6 4 0 2-2 2-6 2-2 0-4 0-6-2zM360 602c0 0 0-32 0-32 0-4-2-6-2-10-2-2-4-4-6-6s-4-4-8-4c-2 0-6-2-10-2s-6 2-10 2c-4 2-6 2-8 4s-4 4-6 6c0 4-2 6-2 8 0 0 12 0 12 0 0-2 0-2 2-4 0-2 0-2 2-4 2 0 2 0 4-2 2 0 4 0 6 0 4 0 8 0 10 4 2 2 4 4 4 8 0 0 0 6 0 6s-12 0-12 0c-4 0-8 0-12 2-2 0-6 2-8 4-4 0-6 4-6 6-2 2-2 6-2 10 0 2 0 4 2 6 0 4 2 6 4 8 2 0 4 2 6 4 4 0 6 0 10 0 2 0 4 0 6 0s2 0 4-2c2 0 4-2 4-2 2-2 4-2 4-4 0 2 0 4 0 4 2 2 2 2 2 4 0 0 12 0 12 0s0-2 0-2c-2-2-2-4-2-6s0-4 0-6zM348 598c0 0-2 2-2 2-2 2-2 2-4 4-2 0-4 2-6 2 0 0-2 0-4 0s-4 0-6 0c-2 0-4-2-4-2-2-2-2-2-2-4-2-2-2-2-2-4 0-4 2-8 6-10s8-2 14-2c0 0 10 0 10 0s0 14 0 14zM308 470c0 2 2 2 2 4 2 0 2 2 4 2s2 0 4 0 2 0 4 0 2 0 2 0 0-8 0-8c0 0 0 0-2 2 0 0 0 0-2 0 0 0 0 0-2 0 0-2 0-2-2-2 0 0 0 0 0-2 0 0 0-2 0-2s0-32 0-32h8v-6h-8v-12h-10v12h-8v6h8c0 0 0 32 0 32 0 2 2 4 2 6zM292 608c-2 0-2-2-4-2 0 0-2 0-2 0s0-2-2-2c0-2 0-4 0-4s0-42 0-42h12v-8h-12v-16h-12v16h-12v8h12c0 0 0 42 0 42 0 2 2 6 2 8s2 4 4 4c0 2 2 4 4 4s4 0 6 0c2 0 4 0 6 0 0 0 2 0 2 0s0-10 0-10c0 0 0 0-2 0 0 0-2 2-2 2zM248 584c-2 0-4-2-6-4-4 0-8-2-12-2-2-2-4-2-6-2-2-2-4-2-6-2 0-2-2-2-2-4 0 0 0-2 0-2 0-2 0-2 0-4s2-2 2-4c2 0 4 0 4-2 2 0 4 0 6 0s4 0 6 0c2 2 4 2 4 4 2 0 2 2 4 4 0 0 0 2 0 4 0 0 12 0 12 0 0-4 0-6-2-8-2-4-2-6-4-8-4-2-6-2-8-4-4 0-8-2-12-2s-6 2-10 2c-2 2-4 2-8 4-2 2-2 4-4 6s-2 6-2 8c0 2 0 4 2 6s2 4 4 6c2 2 6 2 8 4 4 0 6 2 10 2 4 2 6 2 8 2 2 2 4 2 4 4 2 0 2 2 2 2 0 2 2 2 2 4s-2 2-2 4c0 0-2 2-2 2-2 2-4 2-4 2-2 2-4 2-8 2 0 0-2 0-4-2-2 0-4 0-6-2 0 0-2-2-2-2-2-2-2-4-2-6 0 0-12 0-12 0 0 2 0 4 2 8 2 2 2 4 6 6 2 2 4 4 8 4 2 2 6 2 10 2s8 0 12 0c2-2 6-4 8-4 2-2 4-4 4-6 2-4 2-6 2-8 0-4 0-6-2-8 0-2-2-4-4-6zM192 432c-2-2-4-4-8-4-2-2-4-2-8-2-2 0-6 0-8 2-2 0-6 2-8 4s-2 4-4 8c-2 4-2 6-2 10 0 0 0 2 0 2 0 4 0 8 2 10 0 4 2 6 4 8s4 4 8 4c2 2 6 2 8 2 4 0 6 0 8 0s4-2 4-2 4-2 4-4c2 0 2-2 4-4 0 0-6-4-6-4-2 2-4 4-6 6s-4 2-6 2c-2 0-4 0-6-2-2 0-4-2-6-4 0 0-2-2-2-4s-2-4-2-6c0 0 34 0 34 0s0-4 0-4 0-8-2-10c0-2-2-6-2-8zM188 446c0 0-24 0-24 0 0-2 0-4 0-6 2-2 2-2 4-4 0-2 2-2 4-2 0-2 2-2 4-2s4 0 6 2c0 0 2 2 2 2 2 2 2 4 2 4 2 2 2 4 2 6 0 0 0 0 0 0zM182 554c-2-2-4-4-6-4-2-2-6-2-10-2s-6 2-10 4c-4 0-6 4-8 6 0 0-2-8-2-8h-10v66h12c0 0 0-48 0-48 2-2 4-6 6-8 2 0 6-2 10-2 2 0 4 0 6 0 0 2 2 2 4 4 0 0 2 2 2 4s0 4 0 6c0 0 0 44 0 44h12c0 0 0-44 0-44 0-4 0-8-2-10 0-4-2-6-4-8zM144 466c2-2 2-4 2-8 0-2 0-4-2-6 0-2-2-4-4-6s-4-2-6-4c-2-2-6-2-10-4-2 0-4-2-6-2s-4-2-6-2c0-2-2-2-2-4-2 0-2-2-2-4s0-2 2-4c0-2 0-2 2-4 2 0 2-2 4-2s4 0 6 0c2 0 4 0 6 0 2 2 4 2 6 4 0 0 2 2 2 4 0 0 0 2 0 4 0 0 10 0 10 0 0-2 0-4-2-8 0-2-2-4-4-6s-4-2-8-4c-2-2-6-2-10-2s-6 0-8 2c-4 0-6 2-8 4s-4 4-4 6c-2 2-2 4-2 6 0 4 0 6 2 8 0 2 2 4 4 4 2 2 4 4 6 4 4 2 6 4 10 4 2 0 6 2 8 2 2 2 2 2 4 4 2 0 2 2 2 2 0 2 2 4 2 4 0 4-2 6-4 8-4 2-6 4-12 4-2 0-4 0-6-2-2 0-4 0-4-2-2 0-4-2-4-4-2-2-2-4-2-6 0 0-8 0-8 0 0 2 0 4 0 6 2 2 2 4 4 6 0 0 2 2 4 4 2 0 4 2 4 2 2 0 4 2 6 2s4 0 6 0 8 0 10 0c4-2 6-2 8-4s4-4 4-6zM106 616h10v-88h-10v88zM210 470c2 2 4 4 8 4 2 2 6 2 8 2 4 0 6 0 8 0s4-2 4-2 4-2 4-4c2 0 2-2 4-4 0 0-6-4-6-4-2 2-4 4-6 6s-4 2-6 2c-2 0-4 0-6-2-2 0-4-2-6-4 0 0-2-2-2-4s-2-4-2-6c0 0 34 0 34 0s0-4 0-4 0-8-2-10c0-2-2-6-2-8-2-2-4-4-8-4-2-2-4-2-8-2-2 0-6 0-8 2-2 0-6 2-8 4s-2 4-4 8c-2 4-2 6-2 10 0 0 0 2 0 2 0 4 0 8 2 10 2 4 2 6 4 8zM214 440c2-2 2-2 4-4 0-2 2-2 4-2 0-2 2-2 4-2s4 0 6 2c0 0 2 2 2 2 2 2 2 4 2 4 2 2 2 4 2 6 0 0 0 0 0 0s-24 0-24 0c0-2 0-4 0-6zM282 476h8v-50h-8v50zM286 418c2 0 2 0 4-2 0 0 0-2 0-2 0-2 0-4 0-4-2-2-2-2-4-2s-4 0-4 2c-2 0-2 2-2 4 0 0 0 2 2 2 0 2 2 2 4 2z"></path>
</svg>
