<?xml version="1.0" encoding="utf-8"?>
<!-- Generated by IcoMoon.io -->
<!DOCTYPE svg PUBLIC "-//W3C//DTD SVG 1.1//EN" "http://www.w3.org/Graphics/SVG/1.1/DTD/svg11.dtd">
<svg version="1.1" xmlns="http://www.w3.org/2000/svg" xmlns:xlink="http://www.w3.org/1999/xlink" width="1024" height="1024" viewBox="0 0 1024 1024" style="fill: white;">
<g id="icomoon-ignore">
</g>
<path d="M46 310c0 0 932 0 932 0 26 0 46 20 46 46 0 0 0 312 0 312 0 26-20 46-46 46 0 0-932 0-932 0-26 0-46-20-46-46 0 0 0-312 0-312 0-26 20-46 46-46zM908 570c-8 0-14-6-14-14 0 0 0-68 0-68 0-8 6-16 14-16s16 8 16 16c0 0 0 68 0 68 0 8-8 14-16 14zM874 580c0 0-10 0-10 0s0 34 0 34c0 8-6 14-14 14s-14-6-14-14c0 0 0-34 0-34h-20c0 0 0 34 0 34 0 8-6 14-14 14s-14-6-14-14c0 0 0-34 0-34s-10 0-10 0c-6 0-10-4-10-10 0 0 0-98 0-98h116c0 0 0 98 0 98 0 6-4 10-10 10zM884 464c0 0-116 0-116 0 0-20 10-36 24-48 0 0-14-12-14-12 0-2 0-6 0-8 2 0 6 0 8 0 0 0 14 14 14 14 8-4 16-6 26-6s18 2 26 8c0 0 14-14 14-14 2-2 4-2 6 0s2 4 0 6c0 0-12 12-12 12 14 10 24 28 24 48zM806 434h-8v10h8v-10zM856 434h-10v10h10v-10zM744 570c-8 0-14-6-14-14 0 0 0-68 0-68 0-8 6-16 14-16s14 8 14 16c0 0 0 68 0 68 0 8-6 14-14 14zM490 522c0 0 0 34 0 34-2-2-6-4-8-6-4 0-6-2-10-2s-8 2-12 2c-2 2-6 4-8 8-2 2-4 6-4 10-2 4-2 10-2 14 0 0 0 2 0 2 0 4 0 8 2 12 0 4 2 8 4 12 2 2 6 4 8 6 4 2 8 2 12 2s8 0 10-2c4 0 6-2 8-6 0 0 0 8 0 8h10v-94h-10zM490 598c-2 0-2 2-2 4-2 0-4 2-4 2-2 2-4 2-4 2-2 0-4 2-6 2s-6-2-8-2c-2-2-4-4-6-6 0-2-2-4-2-8 0-2-2-6-2-8 0 0 0-2 0-2 0-4 2-6 2-10 0-2 2-4 2-6 2-2 4-4 6-6s6-2 8-2c2 0 4 0 6 0 2 2 2 2 4 2 2 2 2 2 4 4 0 0 0 2 2 4 0 0 0 30 0 30zM440 426c-4 0-6 0-8 2-2 0-4 2-4 4 0 0 0-6 0-6h-8v50h8c0 0 0-36 0-36 0-2 2-4 4-4 2-2 4-2 6-2s2 0 4 0c0 0 0 0 2 0 0 0 0-8 0-8-2 0-2 0-2 0-2 0-2 0-2 0zM424 526c-2 0-4 0-4 2-2 0-2 2-2 4s0 4 2 4c0 2 2 2 4 2s4 0 6-2c0 0 2-2 2-4s-2-4-2-4-4-2-6-2zM420 616h10v-66h-10v66zM402 432c-2-2-4-4-8-4-2-2-4-2-8-2s-6 0-10 2c-2 0-4 2-6 4s-4 6-6 8c0 4 0 6 0 10 0 0 0 2 0 2 0 4 0 6 0 10 2 2 4 6 6 8s4 4 6 4 6 2 10 2c4 0 6 0 8-2 4 0 6-2 8-4s4-6 4-8c2-4 2-6 2-10 0 0 0-2 0-2 0-4 0-6-2-10 0-2-2-6-4-8zM400 452c0 2 0 4-2 6 0 2 0 4-2 6s-2 4-4 4-4 2-6 2c-2 0-4 0-6-2-2 0-4-2-4-4-2-2-2-4-4-6 0-2 0-4 0-6 0 0 0-2 0-2 0-2 0-4 0-6 2-2 2-4 4-6 0-2 2-4 4-4 2-2 4-2 6-2s4 0 6 2c2 0 2 2 4 4s2 4 2 6c2 2 2 4 2 6 0 0 0 2 0 2zM396 558c-2-2-6-6-10-6-4-2-8-4-12-4s-8 2-12 4c-4 0-8 4-10 6-2 4-4 6-6 10 0 4-2 10-2 14 0 0 0 2 0 2 0 4 2 8 2 12 2 4 4 8 6 12 4 2 6 4 10 6s8 2 12 2c4 0 8 0 12-2s8-4 10-6c2-4 4-8 6-12s2-8 2-12c0 0 0-2 0-2 0-4 0-10-2-14s-4-6-6-10zM392 584c0 2 0 6 0 8-2 4-2 6-4 8s-4 4-6 6c-2 0-4 2-8 2-2 0-6-2-8-2-2-2-4-4-6-6s-2-4-4-8c0-2 0-6 0-8 0 0 0-2 0-2 0-4 0-6 0-10 2-2 2-4 4-6 2-4 4-4 6-6s6-2 8-2c4 0 6 0 8 2s4 2 6 6c2 2 2 4 4 6 0 4 0 6 0 10 0 0 0 2 0 2zM334 548c-4 0-8 2-10 2-2 2-4 4-6 8 0 0 0-8 0-8h-12v66h12c0 0 0-48 0-48 0-2 2-4 6-6 2-2 4-2 8-2 2 0 2 0 4 0 0 0 2 0 2 0s0-10 0-10c0 0 0 0-2-2 0 0-2 0-2 0zM294 470c0 0-2 0-2 0 0-2 0-2-2-2 0 0 0 0 0-2 0 0-2-2-2-2s0-32 0-32h10v-6h-10v-12h-8v12h-8v6h8c0 0 0 32 0 32 0 2 0 4 2 6 0 2 0 2 2 4 0 0 2 2 4 2 0 0 2 0 4 0s2 0 4 0c0 0 2 0 2 0s0-8 0-8c0 0 0 0-2 2 0 0-2 0-2 0zM278 556c-2-2-4-4-8-6-2 0-6-2-10-2s-8 2-10 2c-4 2-6 4-10 8-2 2-4 6-4 10-2 4-2 10-2 14 0 0 0 2 0 2 0 4 0 8 2 12 0 4 2 8 4 12 4 2 6 4 10 6 2 2 6 2 10 2s8 0 10-2c4 0 6-2 8-6 0 0 0 8 0 8h12v-94h-12c0 0 0 34 0 34zM278 598c0 0-2 2-2 4-2 0-2 2-4 2-2 2-2 2-4 2s-4 2-6 2c-2 0-6-2-8-2-2-2-4-4-4-6-2-2-4-4-4-8 0-2 0-6 0-8 0 0 0-2 0-2 0-4 0-6 0-10 0-2 2-4 4-6 0-2 2-4 4-6s6-2 8-2c2 0 4 0 6 0 2 2 2 2 4 2 2 2 2 2 4 4 0 0 2 2 2 4 0 0 0 30 0 30zM216 470c0 0-2 0-2 0 0-2-2-2-2-2s0 0 0-2c-2 0-2-2-2-2s0-32 0-32h10v-6h-10v-12h-8v12h-8v6h8c0 0 0 32 0 32 0 2 0 4 2 6 0 2 0 2 2 4 0 0 2 2 4 2 0 0 2 0 4 0s2 0 4 0c0 0 2 0 2 0s0-8 0-8c0 0-2 0-2 2 0 0-2 0-2 0zM214 554c-2-2-4-4-6-4-4-2-6-2-10-2s-8 2-10 4c-4 0-6 4-8 6 0 0-2-8-2-8h-10v66h12c0 0 0-48 0-48 0-2 2-6 6-8 2 0 6-2 10-2 2 0 4 0 4 0 2 2 4 2 6 4 0 0 2 2 2 4s0 4 0 6c0 0 0 44 0 44h12c0 0 0-44 0-44 0-4 0-8-2-10 0-4-2-6-4-8zM176 476c2 0 4-2 6-2 0-2 2-2 4-4 0 0 2-2 2-4 0 0-6-4-6-4 0 2-2 4-4 6s-6 2-8 2c-2 0-4 0-6-2-2 0-4-2-4-4-2 0-2-2-4-4 0-2 0-4 0-6 0 0 32 0 32 0s0-4 0-4 0-8 0-10c-2-2-2-6-4-8s-4-4-6-4c-2-2-6-2-10-2-2 0-4 0-8 2-2 0-4 2-6 4s-4 4-6 8c0 4-2 6-2 10 0 0 0 2 0 2 0 4 2 8 2 10 2 4 4 6 6 8s4 4 6 4 6 2 10 2c2 0 4 0 6 0zM158 440c0-2 0-2 2-4s2-2 4-2c2-2 2-2 4-2s4 0 6 2c2 0 2 2 4 2 0 2 2 4 2 4 0 2 0 4 0 6 0 0 0 0 0 0s-24 0-24 0c0-2 0-4 2-6zM114 528l-34 88h12l8-24h38l8 24h12l-34-88h-10zM104 582l16-40 14 40h-30zM92 468c2 2 6 4 8 6 4 2 8 2 12 2s6 0 10 0c2-2 4-2 6-2 2-2 4-2 4-4 2-2 2-2 4-4 0 0 0-24 0-24h-24v8h14c0 0 0 14 0 14 0 2 0 2-2 2 0 0 0 2-2 2s-2 0-4 0c-2 2-4 2-6 2-4 0-6-2-8-2-2-2-4-2-6-6-2-2-2-4-4-6 0-4-2-8-2-10 0 0 0-6 0-6 0-4 2-8 2-10 0-4 2-6 4-8 0-2 2-4 4-4 4-2 6-2 8-2 4 0 6 0 8 0 2 2 2 2 4 4 2 0 2 2 2 4 2 2 2 2 2 4 0 0 10 0 10 0-2-2-2-4-4-8 0-2-2-4-4-6s-4-4-8-4c-2-2-6-2-10-2s-8 2-10 2c-4 2-6 4-8 6-4 4-4 6-6 10s-2 8-2 14c0 0 0 6 0 6 0 4 0 8 2 12s4 8 6 10zM254 476h10v-50h-10v50zM260 418c0 0 2 0 2-2 2 0 2-2 2-2 0-2 0-4-2-4 0-2-2-2-2-2-2 0-4 0-4 2-2 0-2 2-2 4 0 0 0 2 2 2 0 2 2 2 4 2zM336 476h8v-44h12v-6h-12c0 0 0-4 0-4 0-4 2-6 4-8 0-2 2-2 6-2 0 0 2 0 2 0s2 0 2 0c0 0 0-6 0-6-2-2-4-2-6-2s-4 2-6 2c-2 0-4 2-6 2 0 2-2 4-2 6-2 2-2 4-2 8 0 0 0 4 0 4h-8v6h8v44zM16 368c0 0 0 288 0 288 0 24 18 42 42 42 0 0 908 0 908 0 24 0 42-18 42-42 0 0 0-288 0-288 0-24-18-42-42-42 0 0-908 0-908 0-24 0-42 18-42 42z"></path>
</svg>
