<?xml version="1.0" encoding="utf-8"?>
<!-- Generated by IcoMoon.io -->
<!DOCTYPE svg PUBLIC "-//W3C//DTD SVG 1.1//EN" "http://www.w3.org/Graphics/SVG/1.1/DTD/svg11.dtd">
<svg version="1.1" xmlns="http://www.w3.org/2000/svg" xmlns:xlink="http://www.w3.org/1999/xlink" width="1024" height="1024" viewBox="0 0 1024 1024" style="fill: white;">
<g id="icomoon-ignore">
</g>
<path d="M978 310c0 0-932 0-932 0-26 0-46 20-46 46 0 0 0 312 0 312 0 26 20 46 46 46 0 0 932 0 932 0 26 0 46-20 46-46 0 0 0-312 0-312 0-26-20-46-46-46zM1008 656c0 24-18 42-42 42 0 0-908 0-908 0-24 0-42-18-42-42 0 0 0-288 0-288 0-24 18-42 42-42 0 0 908 0 908 0 24 0 42 18 42 42 0 0 0 288 0 288zM924 468c-10-14-24-22-40-22-18 0-26 10-38 10-14 0-24-10-40-10s-34 10-44 28c-16 24-12 70 12 110 8 14 20 28 36 30 14 0 18-10 36-10s22 10 36 8c14 0 26-16 36-30 6-10 8-16 12-26-34-14-40-68-6-88zM454 426c-2 0-4 0-6 2-2 0-4 2-4 4 0 0 0-6 0-6h-10v50h10c0 0 0-36 0-36 0-2 2-4 4-4 2-2 4-2 6-2s2 0 2 0c2 0 2 0 2 0s0-8 0-8c0 0 0 0-2 0 0 0 0 0-2 0zM418 432c-2-2-4-4-8-4-2-2-6-2-8-2-4 0-8 0-10 2-2 0-6 2-8 4s-2 6-4 8c0 4-2 6-2 10 0 0 0 2 0 2 0 4 2 6 2 10 2 2 2 6 4 8s6 4 8 4c2 2 6 2 10 2 2 0 6 0 8-2 4 0 6-2 8-4s2-6 4-8c2-4 2-6 2-10 0 0 0-2 0-2 0-4 0-6-2-10-2-2-2-6-4-8zM416 452c0 2-2 4-2 6s-2 4-2 6c-2 2-2 4-4 4-2 2-4 2-6 2-4 0-6 0-6-2-2 0-4-2-6-4 0-2-2-4-2-6s0-4 0-6c0 0 0-2 0-2 0-2 0-4 0-6s2-4 2-6c2-2 4-4 6-4 0-2 2-2 6-2 2 0 4 0 6 2 0 0 2 2 4 4 0 2 2 4 2 6s2 4 2 6c0 0 0 2 0 2zM362 406c-2 0-4 2-6 2-2 2-2 4-2 6-2 2-2 4-2 8 0 0 0 4 0 4h-8v6h8v44h8v-44h10v-6h-10c0 0 0-4 0-4 0-4 2-6 2-8 2-2 4-2 8-2 0 0 0 0 2 0 0 0 0 0 2 0 0 0 0-6 0-6-2-2-4-2-6-2s-4 2-6 2zM310 470c0 0-2 0-2 0 0-2-2-2-2-2s0 0-2-2c0 0 0-2 0-2s0-32 0-32h10v-6h-10v-12h-8v12h-8v6h8c0 0 0 32 0 32 0 2 0 4 0 6 2 2 2 2 4 4 0 0 2 2 2 2 2 0 4 0 6 0 0 0 2 0 4 0 0 0 2 0 2 0s0-8 0-8c0 0-2 0-2 2 0 0-2 0-2 0zM274 408c0 0-2 0-4 2 0 0 0 2 0 4 0 0 0 2 0 2 2 2 4 2 4 2 2 0 4 0 4-2 2 0 2-2 2-2 0-2 0-4-2-4 0-2-2-2-4-2zM270 476h8v-50h-8v50zM272 576c-2-2-6-4-10-6s-8-2-12-4c-4-2-8-2-10-4-2 0-4-2-6-2-2-2-4-4-4-6 0 0-2-2-2-4s2-4 2-6c0-2 2-4 4-4 0-2 2-2 6-4 2 0 4 0 8 0 2 0 6 0 8 0 2 2 4 2 6 4s2 4 4 6c0 2 0 4 0 6 0 0 12 0 12 0 0-2 0-6-2-10-2-2-4-6-6-8s-6-4-10-6c-4-2-8-2-12-2-6 0-10 0-14 2-2 0-6 2-8 4-4 2-6 6-6 8-2 4-2 6-2 10s0 6 2 10c0 2 2 4 4 6 4 2 6 4 10 6s8 2 12 4c4 2 8 2 10 4 2 0 4 2 6 4 2 0 4 2 4 4s0 4 0 6 0 6-4 10c-4 2-8 4-14 4-4 0-6-2-8-2s-6-2-8-2c-2-2-2-4-4-6s-2-6-2-8c0 0-12 0-12 0 0 2 0 6 2 8 0 2 2 4 4 6s2 4 6 6c2 2 4 2 6 4 2 0 4 2 8 2 2 0 6 0 8 0 4 0 8 0 12-2 4 0 8-2 10-4s4-4 6-8c2-2 2-6 2-10 0-2 0-6-2-8 0-2-2-6-4-8zM218 464c0 2 0 4 0 6 2 2 2 2 4 4 0 0 2 2 2 2 2 0 4 0 6 0 0 0 2 0 2 0 2 0 2 0 4 0 0 0 0-8 0-8s-2 0-2 2c-2 0-2 0-2 0-2 0-2 0-2 0-2-2-2-2-2-2s-2 0-2-2c0 0 0-2 0-2s0-32 0-32h10v-6h-10v-12h-8v12h-10v6h10c0 0 0 32 0 32zM200 432c-2-2-4-4-6-4-4-2-6-2-10-2-2 0-6 0-8 2-2 0-4 2-6 4s-4 4-6 8c0 4-2 6-2 10 0 0 0 2 0 2 0 4 2 8 2 10 2 4 2 6 4 8s4 4 8 4c2 2 6 2 10 2 2 0 4 0 6 0s4-2 4-2 4-2 4-4c2 0 2-2 4-4 0 0-6-4-6-4-2 2-2 4-4 6-4 2-6 2-8 2s-4 0-6-2c-2 0-4-2-6-4 0 0-2-2-2-4s-2-4-2-6c0 0 34 0 34 0s0-4 0-4 0-8 0-10c-2-2-2-6-4-8zM196 446c0 0-24 0-24 0 0-2 0-4 0-6 2-2 2-2 4-4 0-2 2-2 4-2 0-2 2-2 4-2s4 0 6 2c0 0 2 2 2 2 2 2 2 4 4 4 0 2 0 4 0 6 0 0 0 0 0 0zM192 538c-2-4-6-8-10-10s-10-2-16-2c-4 0-10 0-14 2s-8 6-10 10c-4 2-6 8-8 12-2 6-2 12-2 18 0 0 0 6 0 6 0 6 0 12 2 18s4 10 8 14c2 2 6 6 10 8s10 2 14 2c6 0 12 0 16-2s8-6 10-8c4-4 6-8 8-14s2-12 2-18c0 0 0-6 0-6 0-6 0-12-2-18-2-4-4-10-8-12zM190 574c0 6 0 10 0 14-2 4-4 8-6 10-2 4-4 6-6 6-4 2-8 2-12 2-2 0-6 0-8-2-4 0-6-2-8-6-2-2-4-6-6-10 0-4-2-8-2-14 0 0 0-6 0-6 0-4 2-10 2-14 2-4 4-8 6-10s4-4 8-6c2-2 6-2 8-2 4 0 8 0 10 2 4 2 6 4 8 6s4 6 6 10c0 4 0 10 0 14 0 0 0 6 0 6zM144 474c2-2 2-2 4-4s2-2 2-4c0 0 0-24 0-24h-24v8h16c0 0 0 14 0 14 0 2-2 2-2 2s-2 2-2 2c-2 0-4 0-4 0-2 2-4 2-6 2-4 0-6-2-8-2-2-2-4-2-6-6-2-2-4-4-4-6-2-4-2-8-2-10 0 0 0-6 0-6 0-4 0-8 2-10 0-4 2-6 2-8 2-2 4-4 6-4 2-2 6-2 8-2s6 0 6 0c2 2 4 2 6 4 0 0 2 2 2 4 2 2 2 2 2 4 0 0 8 0 8 0 0-2 0-4-2-8 0-2-2-4-4-6s-4-4-8-4c-2-2-6-2-10-2s-8 2-12 2c-2 2-6 4-8 6-2 4-4 6-4 10-2 4-2 8-2 14 0 0 0 6 0 6 0 4 0 8 2 12s2 8 6 10c2 2 4 4 8 6s8 2 12 2c2 0 6 0 8 0 4-2 6-2 8-2zM110 526c-2 0-4 0-6 2 0 0-2 2-2 4s2 4 2 4 4 2 6 2c2 0 4 0 4-2 2 0 2-2 2-4s0-4-2-4c0-2-2-2-4-2zM104 616h10v-66h-10v66zM870 430c8-8 12-22 10-34-10 0-24 8-30 18-8 8-14 22-12 34 12 0 26-8 32-18z"></path>
</svg>
