<?xml version="1.0" encoding="utf-8"?>
<!-- Generated by IcoMoon.io -->
<!DOCTYPE svg PUBLIC "-//W3C//DTD SVG 1.1//EN" "http://www.w3.org/Graphics/SVG/1.1/DTD/svg11.dtd">
<svg version="1.1" xmlns="http://www.w3.org/2000/svg" xmlns:xlink="http://www.w3.org/1999/xlink" width="1024" height="1024" viewBox="0 0 1024 1024" style="fill: #0A8F08;">
<g id="icomoon-ignore">
</g>
<path d="M1018 464c-4 0-18 0-28 0 2-12 4-20 4-24s-2-6-6-6c-4 0-12 2-18 4-2 12-4 18-6 26-6 0-10 0-12 0s-4 2-4 4c-4 2-4 6-4 10 8 0 12 0 18 0-2 6-2 10-4 16-2 8-4 22-6 34-6 10-18 20-32 24-4 2-10 4-14 4s-10-4-14-8c14-8 32-20 42-32 4-6 8-12 8-20 0-10-8-24-28-24-32 0-52 28-52 60 0 6 0 12 4 18-4 2-8 4-14 4-10 0-20-22-22-36 6-8 22-20 26-24s8-8 8-12c0-4-4-6-8-10-8 8-26 26-44 38 4-14 8-32 10-48 4-16 8-30 8-32 0-4-2-6-6-6-6 0-14 2-20 4-6 30-10 48-12 66-2 12-6 28-8 40-4 6-12 14-22 18-4 2-8 4-14 4-12 0-18-12-16-26 0-16 8-42 22-42 6 0 10 10 8 18 2 0 4 0 8 0 6 0 12-2 12-12s-8-22-26-22c-6 0-12 2-18 4s-10 4-14 8c-2 2-4 4-6 6-4 4-10 6-16 6-4 0-10-2-14-6 0 0 0-2-2-2-2-4-6-6-8-8-4-4-12-8-20-8-34 0-52 30-52 56 0 8 0 14 2 20-6 4-10 8-14 8-6 0-8-4-8-8s2-16 4-28c4-12 6-20 6-24s-2-10-8-10c-6-2-20-4-26-6s-18-4-26-8c-4 2-10 8-10 16 0 6 6 8 12 10 0 4-2 10-2 10-2 8-6 16-10 22-6 12-16 22-26 24 12-10 16-32 16-46 0-16-8-36-26-36-12 0-20 8-28 18 0-4 2-8 2-12s-2-6-6-6c-6 0-14 2-18 4-8 30-10 52-14 70-4 22-8 50-8 60 0 6 8 10 14 10 2 0 8-2 10-4 2-20 4-34 6-48 8 6 18 10 28 10 16 0 34-8 46-18 16-14 22-30 28-48 0-2 0-4 2-6 4 0 8 2 12 2 2 0 4 2 4 2 0 4-2 10-4 16-2 10-4 20-4 28 0 14 8 24 26 24 10 0 20-8 28-14 6 8 16 14 30 14 32 0 50-30 50-56 0-4 0-6 0-10 2 2 6 2 8 2 0 0 4 0 6-2-2 6-4 14-4 20 0 28 14 46 38 46 14 0 28-10 40-20-2 6-2 10-2 14 0 6 16 6 24 4 2-14 4-26 6-40 4 20 14 42 34 42 10 0 20-6 28-12 6 6 18 12 28 12 22 0 38-12 52-26 0 16 10 26 26 26 14 0 24-8 30-14 2-2 2-6 2-8 0-4-2-6-6-8-4 4-10 12-18 12s-10-8-10-14c0-10 2-22 4-30 2-12 4-22 6-34 12 0 28 2 32 0 4-4 6-6 6-10 0-2-2-4-6-4zM466 554c-6 0-12-2-16-6 4-22 14-54 30-54 6 0 10 8 10 16 0 10-4 44-24 44zM668 516c0 12-6 40-22 40-10 0-14-12-14-26 0-16 8-42 24-42 10 0 14 16 12 28zM888 536c0-2 0-4 0-4 0-18 10-44 24-44 6 0 8 6 8 10 0 14-18 30-32 38zM366 456c0-12 10-20 22-20 14 0 20 18 20 34 2 2 6 2 10 2 10 0 14-6 14-18 0-18-14-34-42-34-30 0-52 18-52 46 0 18 14 36 30 50 14 14 20 22 20 32s-10 22-22 22c-20 0-32-24-32-46-14-4-24 2-24 16 0 24 20 48 52 48s52-22 52-50c0-16-14-34-24-44s-24-22-24-38zM242 504c-10-2-12-8-14-12 0-4 0-12 8-18 10-4 8-10 8-10v0c0 0-2-8-14-4-8 2-14-2-18-6-2-4-4-12 2-18 8-10 2-14 2-14v0c0 0-4-6-12 2-8 6-16 4-20 2-4-4-8-10-6-18 4-12-2-14-2-14v0c0 0-8-2-12 6-6 10-12 10-18 10-4-2-10-4-10-14-2-10-10-10-10-10v0c0 0-6 0-8 10 0 8-6 12-10 14 0 0-2 0-2 0-6 0-12-2-16-8-6-10-12-8-12-8v0c0 0-6 2-2 14 2 8-2 14-6 16 0 2 0 2-2 2-4 2-10 4-18-2-8-8-12-2-12-2v0c0 0-6 4 2 14 4 6 4 12 2 18 0 0-2 0-2 2-4 2-8 6-18 4-10-4-12 4-12 4v0c0 0-2 6 6 10 8 6 10 12 10 16 0 2 0 2 0 2-2 6-6 10-16 12s-10 8-10 8v0c0 0 0 6 10 8s14 8 16 12c0 0 0 2 0 2 0 4-2 10-10 16-8 4-6 10-6 10v0c0 0 2 8 12 4 10-2 16 2 18 6 0 0 2 0 2 2 2 4 2 10-2 16-8 10-2 14-2 14v0c0 0 4 6 12-2 8-6 14-4 18-2 2 0 2 0 2 2 4 2 8 8 6 16-4 12 2 14 2 14v0c0 0 6 2 12-6 4-10 12-10 16-10 6 2 12 6 12 16 2 10 8 10 8 10v0c0 0 8 0 10-10 0-10 8-14 12-16 4 0 12 2 16 10s12 6 12 6v0c0 0 6-2 2-14-2-8 2-14 6-18 4-2 12-4 20 2 8 8 12 2 12 2v0c0 0 6-4-2-14-6-6-4-14-2-18 4-4 10-8 18-6 12 4 14-4 14-4v0c0 0 2-6-6-10-10-6-10-14-10-18 2-4 4-10 14-12s10-8 10-8v0c0 0 0-6-10-8zM126 590c-42 0-78-34-78-78s36-78 78-78c44 0 78 34 78 78s-34 78-78 78zM126 452c-32 0-60 26-60 60s28 62 60 62c34 0 62-28 62-62s-28-60-62-60zM126 556c-24 0-44-20-44-44s20-44 44-44c24 0 44 20 44 44s-20 44-44 44z"></path>
</svg>
