<?xml version="1.0" encoding="utf-8"?>
<!-- Generated by IcoMoon.io -->
<!DOCTYPE svg PUBLIC "-//W3C//DTD SVG 1.1//EN" "http://www.w3.org/Graphics/SVG/1.1/DTD/svg11.dtd">
<svg version="1.1" xmlns="http://www.w3.org/2000/svg" xmlns:xlink="http://www.w3.org/1999/xlink" width="1024" height="1024" viewBox="0 0 1024 1024">
<g id="icomoon-ignore">
</g>
<path d="M922 1024c0 0-820 0-820 0-56 0-102-46-102-102 0 0 0-820 0-820 0-56 46-102 102-102 0 0 820 0 820 0 56 0 102 46 102 102 0 0 0 820 0 820 0 56-46 102-102 102zM870 410h-154c0 0 0-102 0-102 0-32 22-52 52-52 0 0 102 0 102 0v-154c0 0-128 0-128 0-96 0-178 82-178 180 0 0 0 128 0 128h-104v154h104v358h152v-358h154v-154z"></path>
</svg>
