<?xml version="1.0" encoding="utf-8"?>
<!-- Generated by IcoMoon.io -->
<!DOCTYPE svg PUBLIC "-//W3C//DTD SVG 1.1//EN" "http://www.w3.org/Graphics/SVG/1.1/DTD/svg11.dtd">
<svg version="1.1" xmlns="http://www.w3.org/2000/svg" xmlns:xlink="http://www.w3.org/1999/xlink" width="1024" height="1024" viewBox="0 0 1024 1024">
<g id="icomoon-ignore">
</g>
<path d="M922 1024c0 0-820 0-820 0-56 0-102-46-102-102 0 0 0-820 0-820 0-56 46-102 102-102 0 0 820 0 820 0 56 0 102 46 102 102 0 0 0 820 0 820 0 56-46 102-102 102zM512 308c-112 0-204 92-204 204s92 204 204 204c112 0 204-92 204-204s-92-204-204-204zM922 128c0-16-10-26-26-26 0 0-102 0-102 0-16 0-26 10-26 26 0 0 0 102 0 102 0 16 10 26 26 26 0 0 102 0 102 0 16 0 26-10 26-26 0 0 0-102 0-102zM922 460c0 0-108 0-108 0 6 16 6 36 6 52 0 168-140 308-308 308s-308-140-308-308c0-16 0-36 6-52 0 0-108 0-108 0s0 436 0 436c0 16 10 26 26 26 0 0 768 0 768 0 16 0 26-10 26-26 0 0 0-436 0-436z"></path>
</svg>
