<?xml version="1.0" encoding="utf-8"?>
<!-- Generated by IcoMoon.io -->
<!DOCTYPE svg PUBLIC "-//W3C//DTD SVG 1.1//EN" "http://www.w3.org/Graphics/SVG/1.1/DTD/svg11.dtd">
<svg version="1.1" xmlns="http://www.w3.org/2000/svg" xmlns:xlink="http://www.w3.org/1999/xlink" width="1024" height="1024" viewBox="0 0 1024 1024">
<g id="icomoon-ignore">
</g>
<path d="M922 0c0 0-820 0-820 0-56 0-102 46-102 102 0 0 0 820 0 820 0 56 46 102 102 102 0 0 820 0 820 0 56 0 102-46 102-102 0 0 0-820 0-820 0-56-46-102-102-102zM306 660c-84 0-152-68-152-154 0-84 68-152 152-152 86 0 154 68 154 152 0 86-68 154-154 154zM716 660c-84 0-154-68-154-154 0-84 70-152 154-152 86 0 154 68 154 152 0 86-68 154-154 154z"></path>
</svg>
