<?xml version="1.0" encoding="utf-8"?>
<!-- Generated by IcoMoon.io -->
<!DOCTYPE svg PUBLIC "-//W3C//DTD SVG 1.1//EN" "http://www.w3.org/Graphics/SVG/1.1/DTD/svg11.dtd">
<svg version="1.1" xmlns="http://www.w3.org/2000/svg" xmlns:xlink="http://www.w3.org/1999/xlink" width="1024" height="1024" viewBox="0 0 1024 1024" style="fill: white;">
<g id="icomoon-ignore">
</g>
<path d="M904 344c-52-66-122-104-188-104-90 0-126 44-188 44-64 0-112-44-188-44s-156 48-206 130c-70 114-58 330 56 514 42 66 98 140 170 140 64 0 82-42 168-44 88 0 104 44 168 44 72 0 132-82 172-148 30-48 40-72 64-124-168-66-194-314-28-408zM648 166c32-42 56-104 48-166-52 4-114 38-150 84-32 42-60 102-48 162 56 2 116-34 150-80z"></path>
</svg>
