<?xml version="1.0" encoding="utf-8"?>
<!-- Generated by IcoMoon.io -->
<!DOCTYPE svg PUBLIC "-//W3C//DTD SVG 1.1//EN" "http://www.w3.org/Graphics/SVG/1.1/DTD/svg11.dtd">
<svg version="1.1" xmlns="http://www.w3.org/2000/svg" xmlns:xlink="http://www.w3.org/1999/xlink" width="1024" height="1024" viewBox="0 0 1024 1024" style="fill: white;">
<g id="icomoon-ignore">
</g>
<path d="M812 664c-40 0-76-16-100-42 0 0-358 216-358 216 4 16 4 26 4 36 0 84-66 150-146 150-82 0-146-66-146-150 0-82 64-148 146-148 40 0 76 16 100 40 0 0 360-216 360-216-6-10-6-26-6-36s0-26 6-36c0 0-360-210-360-210-24 26-60 40-100 40-86 0-152-66-152-154s66-154 152-154c86 0 152 66 152 154 0 10 0 26-6 36 0 0 358 212 358 212 26-26 62-42 102-42 86 0 146 62 146 150 0 86-66 154-152 154z"></path>
</svg>
