<?xml version="1.0" encoding="utf-8"?>
<!-- Generated by IcoMoon.io -->
<!DOCTYPE svg PUBLIC "-//W3C//DTD SVG 1.1//EN" "http://www.w3.org/Graphics/SVG/1.1/DTD/svg11.dtd">
<svg version="1.1" xmlns="http://www.w3.org/2000/svg" xmlns:xlink="http://www.w3.org/1999/xlink" width="1024" height="1024" viewBox="0 0 1024 1024">
<g id="icomoon-ignore">
</g>
<path d="M922 1024c0 0-820 0-820 0-56 0-102-46-102-102 0 0 0-820 0-820 0-56 46-102 102-102 0 0 820 0 820 0 56 0 102 46 102 102 0 0 0 820 0 820 0 56-46 102-102 102zM716 716c0 0-50 0-96 0-52 0-56-20-56-56 0-4 0-200 0-200h152v-152h-152v-154c0 0-114 0-114 0-10 62-20 154-142 164 0 0 0 142 0 142h102c0 0 0 180 0 242 0 92 66 174 200 174 56 0 106-6 106-6v-154z"></path>
</svg>
