<?xml version="1.0" encoding="utf-8"?>
<!-- Generated by IcoMoon.io -->
<!DOCTYPE svg PUBLIC "-//W3C//DTD SVG 1.1//EN" "http://www.w3.org/Graphics/SVG/1.1/DTD/svg11.dtd">
<svg version="1.1" xmlns="http://www.w3.org/2000/svg" xmlns:xlink="http://www.w3.org/1999/xlink" width="1024" height="1024" viewBox="0 0 1024 1024" style="fill: white;">
<g id="icomoon-ignore">
</g>
<path d="M874 768c-34 0-64-30-64-64 0 0 0-300 0-300 0-34 30-64 64-64s64 30 64 64c0 0 0 300 0 300 0 34-30 64-64 64zM724 810c0 0-42 0-42 0s0 150 0 150c0 34-30 64-64 64s-64-30-64-64c0 0 0-150 0-150h-86c0 0 0 150 0 150 0 34-30 64-64 64s-64-30-64-64c0 0 0-150 0-150s-42 0-42 0c-26 0-44-16-44-42 0 0 0-428 0-428h514c0 0 0 428 0 428 0 26-18 42-44 42zM768 298c0 0-514 0-514 0 0-86 44-158 104-206 0 0-56-54-56-54-4-10-4-26 0-36 8-4 26-4 34 0 0 0 60 66 60 66 34-18 72-26 114-26 44 0 82 8 112 30 0 0 64-64 64-64 8-10 22-10 30 0 8 8 8 20 0 30 0 0-56 54-56 54 64 44 108 120 108 206zM426 170h-44v42h44v-42zM640 170h-44v42h44v-42zM148 768c-34 0-64-30-64-64 0 0 0-300 0-300 0-34 30-64 64-64s64 30 64 64c0 0 0 300 0 300 0 34-30 64-64 64z"></path>
</svg>
